<svg xmlns="http://www.w3.org/2000/svg" version="1.1" xmlns:xlink="http://www.w3.org/1999/xlink" xmlns:svgjs="http://svgjs.com/svgjs" width="100%" height="100%" viewBox="0 0 1000 600"><rect width="1000" height="600" x="0" y="0" fill="#a96360"/><g><circle r="166.66666666666666" cx="449.90079752604163" cy="472.1229693790016" fill="#d7c4bb" transform="matrix(0.4413310239116798,0,0,0.44133102391167983,0,91.6374712529535)"/><path d="M396.57343935456294 547.1229633500275Q395.2844705532058 547.1229633500275 394.41516601275555 546.1637307536687Q393.5758374909416 545.1745221386736 393.5758374909416 543.4658890764094L393.5758374909416 543.4658890764094Q393.5758374909416 540.6481433246054 395.49430268365927 539.1493423927947Q397.44274389501317 537.6205654423477 401.75929057862794 536.7512609018975L401.75929057862794 536.7512609018975L408.8935830140468 535.4622921005404L408.8935830140468 407.70450067299737L397.65257602546666 407.70450067299737Q393.99550175184856 407.70450067299737 393.99550175184856 403.1781218589291L393.99550175184856 403.1781218589291Q393.99550175184856 400.36037610712503 396.03387101911113 398.7416711007695Q398.10221630500985 397.122966094414 401.75929057862794 397.122966094414L401.75929057862794 397.122966094414L441.05785101070416 397.122966094414Q443.6357886134185 397.122966094414 443.6357886134185 399.94071184621805L443.6357886134185 399.94071184621805Q443.6357886134185 404.01745038074307 437.58063284890335 405.33639520073655L437.58063284890335 405.33639520073655L426.1597697485059 407.91433280345086L426.1597697485059 535.4622921005404L494.14538001543866 535.4622921005404L496.9331497486065 521.8831556583355Q498.6717588295069 513.0102541420163 502.9883055131217 513.0102541420163L502.9883055131217 513.0102541420163Q506.2257155258328 513.0102541420163 506.2257155258328 516.2476641547273L506.2257155258328 516.2476641547273L506.2257155258328 547.1229633500275L396.57343935456294 547.1229633500275Z " fill="#a96360" transform="matrix(0.4413310239116798,0,0,0.44133102391167983,0,91.6374712529535)"/><path d="M702.7508626381249 544.6718919427087Q701.525325896894 544.6718919427087 700.6988011179242 543.7598646003973Q699.9007771934017 542.8193364036387 699.9007771934017 541.1947877001464L699.9007771934017 541.1947877001464Q699.9007771934017 538.5157073821067 701.7248318780245 537.0906646597451Q703.5773874170947 535.6371210829362 707.681510457496 534.8105963039666L707.681510457496 534.8105963039666L714.4647138159371 533.5850595627355L714.4647138159371 412.1144179086342L703.7768933982253 412.1144179086342Q700.299789155663 412.1144179086342 700.299789155663 407.8107888871022L700.299789155663 407.8107888871022Q700.299789155663 405.1317085690624 702.2378472580748 403.5926624289119Q704.2044062149337 402.0536162887614 707.681510457496 402.0536162887614L707.681510457496 402.0536162887614L745.0461306378166 402.0536162887614Q747.4972041202786 402.0536162887614 747.4972041202786 404.73269660680114L747.4972041202786 404.73269660680114Q747.4972041202786 408.6088128116247 741.7400315219378 409.86285040730286L741.7400315219378 409.86285040730286L730.8812059775425 412.3139238897648L730.8812059775425 533.5850595627355L795.521143863864 533.5850595627355L798.1717233274566 520.6741724981396Q799.824772885396 512.2379195817591 803.9288959257973 512.2379195817591L803.9288959257973 512.2379195817591Q807.0069882060984 512.2379195817591 807.0069882060984 515.3160118620601L807.0069882060984 515.3160118620601L807.0069882060984 544.6718919427087L702.7508626381249 544.6718919427087ZM840.666497308279 427.7043852912699Q835.9353554700385 427.7043852912699 832.7717606263958 424.7402964287578Q829.5796649283059 421.7477067117985 829.5796649283059 416.6175529112968L829.5796649283059 416.6175529112968Q829.5796649283059 411.4873991107951 832.7717606263958 408.523310248283Q835.9353554700385 405.53072053132365 840.666497308279 405.53072053132365L840.666497308279 405.53072053132365Q845.3691382920722 405.53072053132365 848.6752374079512 408.523310248283Q851.9528356693827 411.4873991107951 851.9528356693827 416.6175529112968L851.9528356693827 416.6175529112968Q851.9528356693827 421.7477067117985 848.6752374079512 424.7402964287578Q845.3691382920722 427.7043852912699 840.666497308279 427.7043852912699L840.666497308279 427.7043852912699ZM823.0244684054426 544.6718919427087Q819.7183692895637 544.6718919427087 819.7183692895637 540.5677689023073L819.7183692895637 540.5677689023073Q819.7183692895637 537.8886885842676 821.6849282464227 536.463645861906Q823.6229863488345 535.0386031395444 826.900584610266 535.0386031395444L826.900584610266 535.0386031395444L833.4842819875765 535.0386031395444L833.4842819875765 453.98217309161754L823.0244684054426 453.98217309161754Q819.7183692895637 453.98217309161754 819.7183692895637 449.8780500512162L819.7183692895637 449.8780500512162Q819.7183692895637 446.99946375204576 821.6849282464227 445.65992359302584Q823.6229863488345 444.320383434006 826.900584610266 444.320383434006L826.900584610266 444.320383434006L848.8747433890817 444.320383434006L848.8747433890817 535.0386031395444L858.508032192246 537.2901706408757Q861.3866184914165 537.8886885842676 862.7261586504363 539.0287227621568Q864.0656988094562 540.1687569400461 864.0656988094562 542.2208184602468L864.0656988094562 542.2208184602468Q864.0656988094562 544.6718919427087 861.586124472547 544.6718919427087L861.586124472547 544.6718919427087L823.0244684054426 544.6718919427087ZM881.0807089144536 544.6718919427087Q877.8031106530218 544.6718919427087 877.8031106530218 540.5677689023073L877.8031106530218 540.5677689023073Q877.8031106530218 537.8886885842676 879.7411687554336 536.463645861906Q881.7077277122926 535.0386031395444 884.9853259737242 535.0386031395444L884.9853259737242 535.0386031395444L891.3410165154569 535.0386031395444L891.3410165154569 453.98217309161754L881.0807089144536 453.98217309161754Q877.8031106530218 453.98217309161754 877.8031106530218 449.8780500512162L877.8031106530218 449.8780500512162Q877.8031106530218 446.99946375204576 879.7411687554336 445.65992359302584Q881.7077277122926 444.320383434006 884.9853259737242 444.320383434006L884.9853259737242 444.320383434006L905.9049531379923 444.320383434006L905.9049531379923 458.6848140754107L906.5319719358314 458.6848140754107Q923.9744948575373 442.26832191380527 942.4430485393433 442.26832191380527L942.4430485393433 442.26832191380527Q957.0069851618788 442.26832191380527 966.4407679839125 450.79007739352755Q975.9030516603933 459.31183287324984 975.9030516603933 473.8757694957852L975.9030516603933 473.8757694957852L975.9030516603933 535.0386031395444L985.7358464446883 537.2901706408757Q991.2935130618984 538.5157073821067 991.2935130618984 542.2208184602468L991.2935130618984 542.2208184602468Q991.2935130618984 544.6718919427087 988.8139387249893 544.6718919427087L988.8139387249893 544.6718919427087L950.2522826578848 544.6718919427087Q946.9461835420059 544.6718919427087 946.9461835420059 540.5677689023073L946.9461835420059 540.5677689023073Q946.9461835420059 537.8886885842676 948.9127424988649 536.463645861906Q950.8508006012767 535.0386031395444 954.1283988627083 535.0386031395444L954.1283988627083 535.0386031395444L960.5125902588883 535.0386031395444L960.5125902588883 475.10130623701616Q960.5125902588883 465.0405046171434 954.6414142427585 458.9983234743303Q948.798739081076 452.9561423315172 937.9399135366807 452.9561423315172L937.9399135366807 452.9561423315172Q929.9311734370086 452.9561423315172 921.7229273562059 457.34527391639085Q913.5146812754032 461.7629063557118 906.731477916962 469.37263449312263L906.731477916962 469.37263449312263L906.731477916962 535.0386031395444L916.5927735557042 537.2901706408757Q919.4713598548745 537.8886885842676 920.7823991594472 539.0287227621568Q922.1219393184671 540.1687569400461 922.1219393184671 542.2208184602468L922.1219393184671 542.2208184602468Q922.1219393184671 544.6718919427087 919.6708658360052 544.6718919427087L919.6708658360052 544.6718919427087L881.0807089144536 544.6718919427087ZM1003.8053881642331 448.8520192911158L1011.3866154471967 399.6025428062995L1026.5775708675715 400.8280795475305L1014.8922205442062 448.8520192911158L1003.8053881642331 448.8520192911158ZM1080.1306763739194 547.1229654251706Q1069.8703687729162 547.1229654251706 1059.4105551907824 544.1588765626585Q1048.950741608648 541.1947877001464 1043.1935690103073 536.2641398807754L1043.1935690103073 536.2641398807754L1043.1935690103073 517.5960802178386Q1043.1935690103073 514.7174939186682 1046.2716612906083 514.7174939186682L1046.2716612906083 514.7174939186682Q1050.1762783498789 514.7174939186682 1051.4018150911102 520.6741724981396L1051.4018150911102 520.6741724981396L1053.2543706301803 529.9084493390427Q1057.158987689451 533.385553581605 1064.426705573495 535.1241057028861Q1071.7229243119864 536.8626578241672 1078.9051396326886 536.8626578241672L1078.9051396326886 536.8626578241672Q1089.564459195953 536.8626578241672 1096.2336591366056 533.385553581605Q1102.9028590772577 529.9084493390427 1102.9028590772577 521.8997092393706L1102.9028590772577 521.8997092393706Q1102.9028590772577 516.3420426221604 1100.252279613665 512.978941797387Q1097.5731992956253 509.58734011816654 1092.129536096204 506.7087538189961Q1086.7143737512301 503.83016751982575 1074.6015106111568 498.8995197004546L1074.6015106111568 498.8995197004546Q1058.783536392943 492.14481719646074 1051.4018150911102 485.4756172558085Q1044.0200937892769 478.8064173151563 1044.0200937892769 468.3466037330223L1044.0200937892769 468.3466037330223Q1044.0200937892769 455.4072158139791 1054.3944048080693 448.8520192911158Q1064.7402149724144 442.26832191380527 1079.532158430528 442.26832191380527L1079.532158430528 442.26832191380527Q1089.564459195953 442.26832191380527 1099.4257548346955 445.9734329919454Q1109.2870504734378 449.6500432156383 1114.4172042739392 454.5806910350094L1114.4172042739392 454.5806910350094L1114.4172042739392 472.6502327545543Q1114.4172042739392 475.3008122181468 1111.3391119936382 475.3008122181468L1111.3391119936382 475.3008122181468Q1109.2870504734378 475.3008122181468 1108.0330128777596 473.98977291357414Q1106.8074761365283 472.6502327545543 1106.2089581931368 469.5721404742533L1106.2089581931368 469.5721404742533L1104.3564026540666 459.71084483551107Q1100.6512915759263 456.4332465740794 1094.1815976164048 454.4951884716677Q1087.7404045113303 452.5286295148087 1081.15670713402 452.5286295148087L1081.15670713402 452.5286295148087Q1071.922430293117 452.5286295148087 1065.766245732515 456.0342346118182Q1059.6100611719125 459.5113388543805 1059.6100611719125 466.89306015621344L1059.6100611719125 466.89306015621344Q1059.6100611719125 471.8237079755845 1062.6026508888722 475.2153096548051Q1065.5667397513844 478.60691133402565 1070.4973875707556 481.17198823427657Q1075.4280353901263 483.73706513452737 1088.766435271431 489.66524285955154L1088.766435271431 489.66524285955154Q1104.9549205974586 496.6479521991233 1111.7381239558995 503.2316495764338Q1118.5213273143409 509.7868460992971 1118.5213273143409 521.2726904415315L1118.5213273143409 521.2726904415315Q1118.5213273143409 534.6110903228359 1107.4344949343676 540.8812783012269Q1096.3476625543944 547.1229654251706 1080.1306763739194 547.1229654251706L1080.1306763739194 547.1229654251706ZM1202.22833682586 544.6718919427087Q1198.7512325832977 544.6718919427087 1198.7512325832977 540.3682629211767L1198.7512325832977 540.3682629211767Q1198.7512325832977 537.6891826031369 1200.8032941034985 536.1501364629864Q1202.8553556236993 534.6110903228359 1206.3324598662616 534.6110903228359L1206.3324598662616 534.6110903228359L1212.916157243572 534.6110903228359L1212.916157243572 413.1404486687345L1206.132953885131 411.91491192750357Q1202.0288308447293 411.08838714853385 1200.1762753056596 409.634843571725Q1198.3237197665894 408.20980084936343 1198.3237197665894 405.53072053132365L1198.3237197665894 405.53072053132365Q1198.3237197665894 403.9061718278315 1199.150244545559 402.9656436310728Q1199.976769324529 402.0536162887614 1201.2023060657598 402.0536162887614L1201.2023060657598 402.0536162887614L1261.3391089494185 402.0536162887614Q1282.059230132556 402.0536162887614 1294.68510865268 412.9409426876039Q1307.3109871728034 423.79976823199917 1307.3109871728034 443.7218654906141L1307.3109871728034 443.7218654906141Q1307.3109871728034 463.6154618947818 1294.68510865268 474.3887848758354Q1282.059230132556 485.16210785688895 1261.3391089494185 485.16210785688895L1261.3391089494185 485.16210785688895L1229.3326494051776 485.16210785688895L1229.3326494051776 534.4115843417053L1239.5929570061808 536.8626578241672Q1243.070061248743 537.6891826031369 1244.4951039711045 538.8292167810262Q1245.9486475479134 539.9407501044683 1245.9486475479134 541.992811624669L1245.9486475479134 541.992811624669Q1245.9486475479134 544.6718919427087 1243.4690732110043 544.6718919427087L1243.4690732110043 544.6718919427087L1202.22833682586 544.6718919427087ZM1229.3326494051776 474.07527547691586L1260.3130781893183 474.07527547691586Q1274.6775088307231 474.07527547691586 1282.5722455126065 465.7815268327714Q1290.4669821944894 457.4592773341798 1290.4669821944894 443.7218654906141L1290.4669821944894 443.7218654906141Q1290.4669821944894 429.7564468114706 1282.5722455126065 421.43419731287895Q1274.6775088307231 413.1404486687345 1260.3130781893183 413.1404486687345L1260.3130781893183 413.1404486687345L1229.3326494051776 413.1404486687345L1229.3326494051776 474.07527547691586ZM1364.7687097384223 547.1229654251706Q1342.794550959607 547.1229654251706 1330.0831698761417 533.1860476004744Q1317.343287938229 519.2206289213309 1317.343287938229 494.5958906789227L1317.343287938229 494.5958906789227Q1317.343287938229 470.1706584176451 1330.168672439483 456.23374059294883Q1342.9940569407377 442.26832191380527 1364.7687097384223 442.26832191380527L1364.7687097384223 442.26832191380527Q1386.7143676627907 442.26832191380527 1399.5397521640452 456.23374059294883Q1412.3651366652994 470.1706584176451 1412.3651366652994 494.5958906789227L1412.3651366652994 494.5958906789227Q1412.3651366652994 519.2206289213309 1399.5397521640452 533.1860476004744Q1386.7143676627907 547.1229654251706 1364.7687097384223 547.1229654251706L1364.7687097384223 547.1229654251706ZM1364.968215719553 537.0906646597451Q1379.9311643043497 537.0906646597451 1388.3674172207302 526.0038322797719Q1396.7751692826637 514.9169998997988 1396.7751692826637 494.5958906789227L1396.7751692826637 494.5958906789227Q1396.7751692826637 474.50278829362435 1388.3674172207302 463.4159559136512Q1379.9311643043497 452.32912353367806 1364.968215719553 452.32912353367806L1364.968215719553 452.32912353367806Q1349.7772602991786 452.32912353367806 1341.369508237245 463.4159559136512Q1332.961756175312 474.50278829362435 1332.961756175312 494.5958906789227L1332.961756175312 494.5958906789227Q1332.961756175312 514.9169998997988 1341.369508237245 526.0038322797719Q1349.7772602991786 537.0906646597451 1364.968215719553 537.0906646597451L1364.968215719553 537.0906646597451ZM1429.6081536058746 544.6718919427087Q1426.330555344443 544.6718919427087 1426.330555344443 540.5677689023073L1426.330555344443 540.5677689023073Q1426.330555344443 537.8886885842676 1428.2686134468545 536.463645861906Q1430.2066715492665 535.0386031395444 1433.5127706651451 535.0386031395444L1433.5127706651451 535.0386031395444L1439.8684612068778 535.0386031395444L1439.8684612068778 453.98217309161754L1429.6081536058746 453.98217309161754Q1426.330555344443 453.98217309161754 1426.330555344443 449.8780500512162L1426.330555344443 449.8780500512162Q1426.330555344443 446.99946375204576 1428.2686134468545 445.65992359302584Q1430.2066715492665 444.320383434006 1433.5127706651451 444.320383434006L1433.5127706651451 444.320383434006L1454.4323978294133 444.320383434006L1454.4323978294133 464.6414926548822L1455.0594166272522 464.6414926548822Q1462.8401498913468 455.2077098328485 1472.2739327133804 448.7380158733269Q1481.736216389861 442.26832191380527 1489.5169496539556 442.26832191380527L1489.5169496539556 442.26832191380527Q1493.8205786754875 442.26832191380527 1496.100647031266 444.4343868517949Q1498.3522145325974 446.57195093533727 1498.3522145325974 450.2770620134774L1498.3522145325974 450.2770620134774Q1498.3522145325974 452.32912353367806 1497.6396931714166 454.26718163608984Q1496.8986709557885 456.23374059294883 1495.6731342145576 457.4592773341798L1495.6731342145576 457.4592773341798Q1474.1264882524501 457.4592773341798 1455.2589226083828 475.7283250348553L1455.2589226083828 475.7283250348553L1455.2589226083828 535.0386031395444L1465.0917173926782 537.2901706408757Q1467.9703036918486 537.8886885842676 1469.3098438508682 539.0287227621568Q1470.6493840098883 540.1687569400461 1470.6493840098883 542.2208184602468L1470.6493840098883 542.2208184602468Q1470.6493840098883 544.6718919427087 1468.1698096729788 544.6718919427087L1468.1698096729788 544.6718919427087L1429.6081536058746 544.6718919427087ZM1549.6537525376143 547.1229654251706Q1538.566920157641 547.1229654251706 1531.1851988558083 540.3682629211767Q1523.803477553975 533.5850595627355 1523.803477553975 521.70020325824L1523.803477553975 521.70020325824L1523.803477553975 455.2077098328485L1509.8380588748319 455.2077098328485Q1508.1850093168923 455.2077098328485 1507.272981974581 453.98217309161754Q1506.3609546322696 452.72813549593934 1506.3609546322696 450.67607397573863L1506.3609546322696 450.67607397573863Q1506.3609546322696 448.0254945121461 1508.2990127346811 446.3724449542066Q1510.2370708370927 444.74789625071446 1513.5431699529718 444.74789625071446L1513.5431699529718 444.74789625071446L1524.0029835351056 444.74789625071446L1526.6535629986984 422.97324345302945L1539.1939389554805 422.97324345302945L1539.1939389554805 444.74789625071446L1570.3738737207518 444.74789625071446Q1572.824947203214 444.74789625071446 1572.824947203214 447.19896973317634L1572.824947203214 447.19896973317634Q1572.824947203214 449.6500432156383 1570.772885683013 450.9040808113165Q1568.7208241628123 452.1296175525475 1564.4171951412804 452.5286295148087L1564.4171951412804 452.5286295148087L1539.1939389554805 455.2077098328485L1539.1939389554805 522.7262340183404Q1539.1939389554805 529.6804425034649 1542.7850466158316 533.2715501638161Q1546.3761542761827 536.8626578241672 1552.5323388367847 536.8626578241672L1552.5323388367847 536.8626578241672Q1556.835967858317 536.8626578241672 1560.1135661197486 535.6371210829362Q1563.3911643811798 534.4115843417053 1566.4692566614813 531.5329980425349L1566.4692566614813 531.5329980425349Q1568.9488309983903 529.4809365223342 1570.3738737207518 529.4809365223342L1570.3738737207518 529.4809365223342Q1572.226429259822 529.4809365223342 1573.4519660010528 530.6209707002236Q1574.6775027422837 531.7325040236656 1574.6775027422837 533.7845655438662L1574.6775027422837 533.7845655438662Q1574.6775027422837 537.6891826031369 1568.5213181816816 541.7933056435384L1568.5213181816816 541.7933056435384Q1560.9400908987182 547.1229654251706 1549.6537525376143 547.1229654251706L1549.6537525376143 547.1229654251706ZM1594.1720871841903 544.6718919427087Q1590.8944889227587 544.6718919427087 1590.8944889227587 540.5677689023073L1590.8944889227587 540.5677689023073Q1590.8944889227587 537.8886885842676 1592.8325470251702 536.463645861906Q1594.7991059820292 535.0386031395444 1598.0767042434609 535.0386031395444L1598.0767042434609 535.0386031395444L1604.6319007663242 535.0386031395444L1604.6319007663242 455.2077098328485L1592.946550442959 455.2077098328485Q1591.29350088502 455.2077098328485 1590.3814735427086 453.98217309161754Q1589.4694462003972 452.72813549593934 1589.4694462003972 450.67607397573863L1589.4694462003972 450.67607397573863Q1589.4694462003972 448.0254945121461 1591.4075043028088 446.3724449542066Q1593.3455624052208 444.74789625071446 1596.6516615210994 444.74789625071446L1596.6516615210994 444.74789625071446L1604.6319007663242 444.74789625071446L1604.6319007663242 426.2793425689083Q1604.6319007663242 412.3139238897648 1612.7546442837852 404.73269660680114Q1620.8488869467992 397.12296846939034 1633.9877808469728 397.12296846939034L1633.9877808469728 397.12296846939034Q1642.1960269277756 397.12296846939034 1649.5777482296085 399.80204878743007Q1656.9594695314418 402.45262825102265 1661.4911053885517 406.556751291424L1661.4911053885517 406.556751291424L1661.4911053885517 424.22728104870765Q1661.4911053885517 425.45281778993865 1660.6645806095817 426.1653391511194Q1659.8380558306121 426.87786051230023 1658.4130131082507 426.87786051230023L1658.4130131082507 426.87786051230023Q1656.3609515880498 426.87786051230023 1655.1354148468185 425.5383203532803Q1653.8813772511407 424.22728104870765 1653.2828593077488 421.1491887684066L1653.2828593077488 421.1491887684066L1651.4303037686786 411.4873991107951Q1645.2741192080766 407.3832760703937 1636.6668611650125 407.3832760703937L1636.6668611650125 407.3832760703937Q1629.0571330276016 407.3832760703937 1624.5539980249391 412.1144179086342Q1620.0223621678292 416.81705889242744 1620.0223621678292 425.45281778993865L1620.0223621678292 425.45281778993865L1620.0223621678292 444.74789625071446L1646.1006439870462 444.74789625071446Q1648.751223450639 444.74789625071446 1648.751223450639 447.5979816954376L1648.751223450639 447.5979816954376Q1648.751223450639 452.72813549593934 1639.516946609736 453.55466027490905L1639.516946609736 453.55466027490905L1620.0223621678292 455.2077098328485L1620.0223621678292 535.0386031395444L1629.684151825441 537.2901706408757Q1632.5627381246113 538.3162014009761 1633.873777429184 539.3422321610764Q1635.213317588204 540.3682629211767 1635.213317588204 542.2208184602468L1635.213317588204 542.2208184602468Q1635.213317588204 544.6718919427087 1632.762244105742 544.6718919427087L1632.762244105742 544.6718919427087L1594.1720871841903 544.6718919427087ZM1707.8619955741974 547.1229654251706Q1685.916337649829 547.1229654251706 1673.1764557119163 533.1860476004744Q1660.465074628451 519.2206289213309 1660.465074628451 494.5958906789227L1660.465074628451 494.5958906789227Q1660.465074628451 470.1706584176451 1673.2904591297051 456.23374059294883Q1686.1158436309597 442.26832191380527 1707.8619955741974 442.26832191380527L1707.8619955741974 442.26832191380527Q1729.8076534985657 442.26832191380527 1742.6330379998203 456.23374059294883Q1755.4584225010744 470.1706584176451 1755.4584225010744 494.5958906789227L1755.4584225010744 494.5958906789227Q1755.4584225010744 519.2206289213309 1742.6330379998203 533.1860476004744Q1729.8076534985657 547.1229654251706 1707.8619955741974 547.1229654251706L1707.8619955741974 547.1229654251706ZM1708.061501555328 537.0906646597451Q1723.0529509945718 537.0906646597451 1731.4607030565053 526.0038322797719Q1739.8684551184388 514.9169998997988 1739.8684551184388 494.5958906789227L1739.8684551184388 494.5958906789227Q1739.8684551184388 474.50278829362435 1731.4607030565053 463.4159559136512Q1723.0529509945718 452.32912353367806 1708.061501555328 452.32912353367806L1708.061501555328 452.32912353367806Q1692.8705461349537 452.32912353367806 1684.4627940730202 463.4159559136512Q1676.0550420110867 474.50278829362435 1676.0550420110867 494.5958906789227L1676.0550420110867 494.5958906789227Q1676.0550420110867 514.9169998997988 1684.4627940730202 526.0038322797719Q1692.8705461349537 537.0906646597451 1708.061501555328 537.0906646597451L1708.061501555328 537.0906646597451ZM1775.7795317219507 544.6718919427087Q1772.501933460519 544.6718919427087 1772.501933460519 540.5677689023073L1772.501933460519 540.5677689023073Q1772.501933460519 537.8886885842676 1774.4399915629306 536.463645861906Q1776.4065505197896 535.0386031395444 1779.6841487812212 535.0386031395444L1779.6841487812212 535.0386031395444L1786.0398393229539 535.0386031395444L1786.0398393229539 408.6088128116247L1775.7795317219507 408.6088128116247Q1772.501933460519 408.6088128116247 1772.501933460519 404.5046897712233L1772.501933460519 404.5046897712233Q1772.501933460519 401.65460432650013 1774.4399915629306 400.3150641674803Q1776.4065505197896 398.9755240084604 1779.6841487812212 398.9755240084604L1779.6841487812212 398.9755240084604L1801.430300724459 398.9755240084604L1801.430300724459 535.0386031395444L1811.2915963632013 537.2901706408757Q1814.1701826623716 537.8886885842676 1815.4812219669443 539.0287227621568Q1816.820762125964 540.1687569400461 1816.820762125964 542.2208184602468L1816.820762125964 542.2208184602468Q1816.820762125964 544.6718919427087 1814.3696886435023 544.6718919427087L1814.3696886435023 544.6718919427087L1775.7795317219507 544.6718919427087ZM1852.1333207860844 427.7043852912699Q1847.4021789478438 427.7043852912699 1844.210083249754 424.7402964287578Q1841.0464884061112 421.7477067117985 1841.0464884061112 416.6175529112968L1841.0464884061112 416.6175529112968Q1841.0464884061112 411.4873991107951 1844.210083249754 408.523310248283Q1847.4021789478438 405.53072053132365 1852.1333207860844 405.53072053132365L1852.1333207860844 405.53072053132365Q1856.8359617698775 405.53072053132365 1860.1135600313091 408.523310248283Q1863.4196591471882 411.4873991107951 1863.4196591471882 416.6175529112968L1863.4196591471882 416.6175529112968Q1863.4196591471882 421.7477067117985 1860.1135600313091 424.7402964287578Q1856.8359617698775 427.7043852912699 1852.1333207860844 427.7043852912699L1852.1333207860844 427.7043852912699ZM1834.4627910288004 544.6718919427087Q1831.1851927673688 544.6718919427087 1831.1851927673688 540.5677689023073L1831.1851927673688 540.5677689023073Q1831.1851927673688 537.8886885842676 1833.1517517242282 536.463645861906Q1835.0898098266398 535.0386031395444 1838.3674080880714 535.0386031395444L1838.3674080880714 535.0386031395444L1844.9511054653817 535.0386031395444L1844.9511054653817 453.98217309161754L1834.4627910288004 453.98217309161754Q1831.1851927673688 453.98217309161754 1831.1851927673688 449.8780500512162L1831.1851927673688 449.8780500512162Q1831.1851927673688 446.99946375204576 1833.1517517242282 445.65992359302584Q1835.0898098266398 444.320383434006 1838.3674080880714 444.320383434006L1838.3674080880714 444.320383434006L1860.3415668668868 444.320383434006L1860.3415668668868 535.0386031395444L1869.9748556700515 537.2901706408757Q1872.8534419692214 537.8886885842676 1874.1929821282415 539.0287227621568Q1875.5040214328142 540.1687569400461 1875.5040214328142 542.2208184602468L1875.5040214328142 542.2208184602468Q1875.5040214328142 544.6718919427087 1873.052947950352 544.6718919427087L1873.052947950352 544.6718919427087L1834.4627910288004 544.6718919427087ZM1935.013805518634 547.1229654251706Q1913.0681475942656 547.1229654251706 1900.3567665108003 533.1860476004744Q1887.6168845728876 519.2206289213309 1887.6168845728876 494.5958906789227L1887.6168845728876 494.5958906789227Q1887.6168845728876 470.1706584176451 1900.4422690741421 456.23374059294883Q1913.2676535753963 442.26832191380527 1935.013805518634 442.26832191380527L1935.013805518634 442.26832191380527Q1956.9879642974497 442.26832191380527 1969.8133487987038 456.23374059294883Q1982.638733299958 470.1706584176451 1982.638733299958 494.5958906789227L1982.638733299958 494.5958906789227Q1982.638733299958 519.2206289213309 1969.8133487987038 533.1860476004744Q1956.9879642974497 547.1229654251706 1935.013805518634 547.1229654251706L1935.013805518634 547.1229654251706ZM1935.2418123542116 537.0906646597451Q1950.2047609390083 537.0906646597451 1958.6125130009418 526.0038322797719Q1967.0487659173223 514.9169998997988 1967.0487659173223 494.5958906789227L1967.0487659173223 494.5958906789227Q1967.0487659173223 474.50278829362435 1958.6125130009418 463.4159559136512Q1950.2047609390083 452.32912353367806 1935.2418123542116 452.32912353367806L1935.2418123542116 452.32912353367806Q1920.0508569338376 452.32912353367806 1911.6431048719037 463.4159559136512Q1903.2068519555237 474.50278829362435 1903.2068519555237 494.5958906789227L1903.2068519555237 494.5958906789227Q1903.2068519555237 514.9169998997988 1911.6431048719037 526.0038322797719Q1920.0508569338376 537.0906646597451 1935.2418123542116 537.0906646597451L1935.2418123542116 537.0906646597451Z " fill="#d7c4bb" transform="matrix(0.4413310239116798,0,0,0.44133102391167983,0,91.6374712529535)"/></g></svg>